<svg width="1280" height="620" viewBox="0 0 1280 620" fill="none" xmlns="http://www.w3.org/2000/svg">
  <defs>
    <linearGradient id="bg" x1="40" y1="40" x2="1240" y2="580" gradientUnits="userSpaceOnUse">
      <stop stop-color="#9EE7E1"/>
      <stop offset="0.52" stop-color="#EFF8FF"/>
      <stop offset="1" stop-color="#F5DCEB"/>
    </linearGradient>
    <filter id="shadow" x="0" y="0" width="1280" height="620" filterUnits="userSpaceOnUse" color-interpolation-filters="sRGB">
      <feDropShadow dx="0" dy="20" stdDeviation="24" flood-color="#3C6BA7" flood-opacity="0.14"/>
    </filter>
  </defs>

  <rect width="1280" height="620" rx="34" fill="url(#bg)"/>
  <rect x="16" y="16" width="1248" height="588" rx="30" stroke="white" stroke-opacity="0.85" stroke-width="2"/>

  <g opacity="0.6">
    <circle cx="180" cy="104" r="10" fill="#79B6FF"/>
    <circle cx="258" cy="170" r="11" fill="#FFE27D"/>
    <circle cx="703" cy="120" r="10" fill="#F5C8DA"/>
    <circle cx="920" cy="512" r="10" fill="#D6B7FF"/>
    <circle cx="604" cy="470" r="8" fill="#B4D8FF"/>
    <rect x="454" y="146" width="16" height="32" rx="3" transform="rotate(-62 454 146)" fill="#D6E6FF"/>
    <rect x="594" y="86" width="14" height="22" rx="3" transform="rotate(28 594 86)" fill="#CFE8F3"/>
    <rect x="687" y="333" width="14" height="22" rx="3" transform="rotate(-24 687 333)" fill="#EAD4DE"/>
    <rect x="749" y="470" width="18" height="28" rx="3" transform="rotate(18 749 470)" fill="#E3F2F8"/>
  </g>

  <g filter="url(#shadow)">
    <rect x="60" y="58" width="1160" height="504" rx="24" fill="url(#bg)" fill-opacity="0.52"/>
  </g>

  <g>
    <rect x="88" y="96" width="232" height="40" rx="20" fill="white" fill-opacity="0.9" stroke="#39C5BB" stroke-width="2"/>
    <text x="112" y="122" fill="#4A6C90" font-size="16" font-family="Segoe UI, Arial, sans-serif">Ayaka no Link Hub</text>

    <text x="88" y="214" fill="#2D4F80" font-size="72" font-weight="800" font-family="Segoe UI, Arial, sans-serif">Ayaka Link Hub</text>
    <text x="88" y="278" fill="#5B7496" font-size="24" font-family="Segoe UI, Arial, sans-serif">A soft anime-style landing page for links, socials, media and tiny daily portals.</text>
    <text x="88" y="316" fill="#5B7496" font-size="24" font-family="Segoe UI, Arial, sans-serif">Built with Vue 3, Vite, gentle gradients, rounded cards and Miku-inspired teal accents.</text>

    <rect x="88" y="392" width="58" height="10" rx="5" fill="#39C5BB"/>
    <rect x="156" y="392" width="58" height="10" rx="5" fill="#71A9FF"/>
    <rect x="224" y="392" width="58" height="10" rx="5" fill="#FF8FB3"/>

    <g>
      <rect x="88" y="430" width="138" height="38" rx="19" fill="white" stroke="#39C5BB" stroke-width="2"/>
      <text x="108" y="455" fill="#2D4F80" font-size="16" font-weight="700" font-family="Segoe UI, Arial, sans-serif">Hero Profile</text>
      <rect x="238" y="430" width="134" height="38" rx="19" fill="white" stroke="#71A9FF" stroke-width="2"/>
      <text x="260" y="455" fill="#2D4F80" font-size="16" font-weight="700" font-family="Segoe UI, Arial, sans-serif">Link Cards</text>
      <rect x="384" y="430" width="144" height="38" rx="19" fill="white" stroke="#FF8FB3" stroke-width="2"/>
      <text x="408" y="455" fill="#2D4F80" font-size="16" font-weight="700" font-family="Segoe UI, Arial, sans-serif">Quick Icons</text>
      <rect x="88" y="480" width="154" height="38" rx="19" fill="white" stroke="#FFB266" stroke-width="2"/>
      <text x="108" y="505" fill="#2D4F80" font-size="16" font-weight="700" font-family="Segoe UI, Arial, sans-serif">Theme Toggle</text>
      <rect x="254" y="480" width="172" height="38" rx="19" fill="white" stroke="#B59DFF" stroke-width="2"/>
      <text x="278" y="505" fill="#2D4F80" font-size="16" font-weight="700" font-family="Segoe UI, Arial, sans-serif">Hover Sweep</text>
    </g>

    <rect x="88" y="532" width="570" height="50" rx="24" fill="white" fill-opacity="0.92"/>
    <text x="112" y="563" fill="#4F678A" font-size="17" font-weight="700" font-family="Segoe UI, Arial, sans-serif">Profile • Works • Contact • Content • Theme Switch • Copy Link</text>
  </g>
</svg>
